<?xml version="1.0" standalone="no"?><svg xmlns:xlink="http://www.w3.org/1999/xlink" xmlns="http://www.w3.org/2000/svg" viewBox="0 0 1920 1080.0064133397466" preserveAspectRatio="xMaxYMax slice"><g transform="scale(1.2826679493346158)"><rect x="0" y="0" width="1496.888888888889" height="842" fill="#ffffff"/><rect x="0" y="0" width="93.56" height="93.56" fill="#f6f6f6"/><polygon points="0,0 93.56,93.56 0,93.56" fill="#d9d9d9"/><rect x="93.55555555555556" y="0" width="93.55555555555556" height="93.55555555555556" fill="#ffffff"/><rect x="93.56" y="0" width="46.78" height="46.78" fill="#eeeeee"/><path d="M 93.56 46.78 A 46.78 46.78 0 0 1 140.34 0 L 140.34 11.695 A 35.085 35.085 0 0 0 105.255 46.78" fill="#f9f9f9"/><rect x="140.33" y="0" width="46.78" height="46.78" fill="#f8f8f8"/><path d="M 140.33 0 A 46.78 46.78 0 0 1 187.11 46.78 L 175.41500000000002 46.78 A 35.085 35.085 0 0 0 140.33 11.695" fill="#dfdfdf"/><rect x="93.56" y="46.78" width="46.78" height="46.78" fill="#f4f4f4"/><path d="M 93.56 46.78 A 46.78 46.78 0 0 0 140.34 93.56 L 140.34 81.86500000000001 A 35.085 35.085 0 0 1 105.255 46.78" fill="#d7d7d7"/><rect x="140.33" y="46.78" width="46.78" height="46.78" fill="#fefefe"/><path d="M 140.33 93.56 A 46.78 46.78 0 0 0 187.11 46.78 L 175.41500000000002 46.78 A 35.085 35.085 0 0 1 140.33 81.86500000000001" fill="#f8f8f8"/><rect x="187.11111111111111" y="0" width="93.55555555555556" height="93.55555555555556" fill="#ffffff"/><rect x="187.11" y="0" width="46.78" height="46.78" fill="#e6e6e6"/><path d="M 187.11 0 A 46.78 46.78 0 0 1 233.89000000000001 46.78 L 187.11 46.78" fill="#fcfcfc"/><rect x="233.89" y="0" width="46.78" height="46.78" fill="#fdfdfd"/><path d="M 233.89 46.78 A 46.78 46.78 0 0 1  280.66999999999996 0 L 280.66999999999996 46.78" fill="#eeeeee"/><rect x="187.11" y="46.78" width="46.78" height="46.78" fill="#f8f8f8"/><path d="M 187.11 93.56 A 46.78 46.78 0 0 0 233.89000000000001 46.78 L 187.11 46.78" fill="#f6f6f6"/><rect x="233.89" y="46.78" width="46.78" height="46.78" fill="#f5f5f5"/><path d="M 233.89 46.78 A 46.78 46.78 0 0 0 280.66999999999996 93.56 L 280.66999999999996 46.78" fill="#fefefe"/><rect x="280.67" y="0" width="93.56" height="93.56" fill="#f9f9f9"/><rect x="280.67" y="0" width="93.56" height="93.56" fill="#e7e7e7"/><rect x="374.22222222222223" y="0" width="93.55555555555556" height="93.55555555555556" fill="#ffffff"/><rect x="374.22" y="0" width="46.78" height="46.78" fill="#f3f3f3"/><circle cx="397.61" cy="23.39" r="23.39" fill="#dcdcdc"/><rect x="421" y="0" width="46.78" height="46.78" fill="#f6f6f6"/><rect x="421" y="0" width="46.78" height="46.78" fill="#e9e9e9"/><rect x="374.22" y="46.78" width="46.78" height="46.78" fill="#f5f5f5"/><circle cx="397.61" cy="70.17" r="23.39" fill="#f8f8f8"/><rect x="421" y="46.78" width="46.78" height="46.78" fill="#eeeeee"/><rect x="421" y="46.78" width="46.78" height="46.78" fill="#f5f5f5"/><rect x="467.78" y="0" width="93.56" height="93.56" fill="#f6f6f6"/><polygon points="467.78,0 561.3399999999999,93.56 467.78,93.56" fill="#e5e5e5"/><rect x="561.3333333333334" y="0" width="93.55555555555556" height="93.55555555555556" fill="#ffffff"/><rect x="561.33" y="0" width="46.78" height="46.78" fill="#fefefe"/><path d="M 561.33 46.78 A 46.78 46.78 0 0 1 608.11 0 L 608.11 11.695 A 35.085 35.085 0 0 0 573.0250000000001 46.78" fill="#f8f8f8"/><rect x="608.11" y="0" width="46.78" height="46.78" fill="#d2d2d2"/><path d="M 608.11 0 A 46.78 46.78 0 0 1 654.89 46.78 L 643.195 46.78 A 35.085 35.085 0 0 0 608.11 11.695" fill="#dedede"/><rect x="561.33" y="46.78" width="46.78" height="46.78" fill="#fefefe"/><path d="M 561.33 46.78 A 46.78 46.78 0 0 0 608.11 93.56 L 608.11 81.86500000000001 A 35.085 35.085 0 0 1 573.0250000000001 46.78" fill="#f3f3f3"/><rect x="608.11" y="46.78" width="46.78" height="46.78" fill="#ededed"/><path d="M 608.11 93.56 A 46.78 46.78 0 0 0 654.89 46.78 L 643.195 46.78 A 35.085 35.085 0 0 1 608.11 81.86500000000001" fill="#f3f3f3"/><rect x="654.89" y="0" width="93.56" height="93.56" fill="#f5f5f5"/><path d="M 654.89 93.56 A 93.56 93.56 0 0 0 748.45 0 L 654.89 0" fill="#efefef"/><rect x="748.44" y="0" width="93.56" height="93.56" fill="#f2f2f2"/><polygon points="748.44,0 842,0 748.44,93.56" fill="#eaeaea"/><rect x="842" y="0" width="93.56" height="93.56" fill="#d8d8d8"/><path d="M 842 0 A 93.56 93.56 0 0 0 935.56 93.56 L 935.56 0" fill="#fafafa"/><rect x="935.5555555555555" y="0" width="93.55555555555556" height="93.55555555555556" fill="#ffffff"/><rect x="935.56" y="0" width="46.78" height="46.78" fill="#e8e8e8"/><circle cx="958.9499999999999" cy="23.39" r="23.39" fill="#e4e4e4"/><rect x="982.33" y="0" width="46.78" height="46.78" fill="#fefefe"/><rect x="982.33" y="0" width="46.78" height="46.78" fill="#eaeaea"/><rect x="935.56" y="46.78" width="46.78" height="46.78" fill="#f5f5f5"/><circle cx="958.9499999999999" cy="70.17" r="23.39" fill="#dbdbdb"/><rect x="982.33" y="46.78" width="46.78" height="46.78" fill="#efefef"/><rect x="982.33" y="46.78" width="46.78" height="46.78" fill="#ececec"/><rect x="1029.111111111111" y="0" width="93.55555555555556" height="93.55555555555556" fill="#ffffff"/><rect x="1029.11" y="0" width="46.78" height="46.78" fill="#fcfcfc"/><path d="M 1029.11 0 A 46.78 46.78 0 0 0 1075.8899999999999 46.78 L 1075.8899999999999 0" fill="#fafafa"/><rect x="1075.89" y="0" width="46.78" height="46.78" fill="#eeeeee"/><path d="M 1075.89 46.78 A 46.78 46.78 0 0 0 1122.67 0 L 1075.89 0" fill="#eaeaea"/><rect x="1029.11" y="46.78" width="46.78" height="46.78" fill="#f6f6f6"/><path d="M 1029.11 93.56 A 46.78 46.78 0 0 1  1075.8899999999999 46.78 L 1075.8899999999999 93.56" fill="#ededed"/><rect x="1075.89" y="46.78" width="46.78" height="46.78" fill="#f0f0f0"/><path d="M 1075.89 46.78 A 46.78 46.78 0 0 1 1122.67 93.56 L 1075.89 93.56" fill="#fafafa"/><rect x="1122.67" y="0" width="93.56" height="93.56" fill="#f9f9f9"/><rect x="1122.67" y="0" width="93.56" height="93.56" fill="#ececec"/><rect x="1216.22" y="0" width="93.56" height="93.56" fill="#e7e7e7"/><path d="M 1216.22 0 A 93.56 93.56 0 0 1  1309.78 93.56 L 1216.22 0 A 93.56 93.56 0 0 0 1309.78 93.56" fill="#e9e9e9"/><rect x="1309.7777777777778" y="0" width="93.55555555555556" height="93.55555555555556" fill="#ffffff"/><rect x="1309.78" y="0" width="46.78" height="46.78" fill="#e8e8e8"/><path d="M 1309.78 46.78 A 46.78 46.78 0 0 1  1356.56 0 L 1356.56 46.78" fill="#dadada"/><rect x="1356.56" y="0" width="46.78" height="46.78" fill="#f3f3f3"/><path d="M 1356.56 0 A 46.78 46.78 0 0 1 1403.34 46.78 L 1356.56 46.78" fill="#f2f2f2"/><rect x="1309.78" y="46.78" width="46.78" height="46.78" fill="#e8e8e8"/><path d="M 1309.78 46.78 A 46.78 46.78 0 0 0 1356.56 93.56 L 1356.56 46.78" fill="#fcfcfc"/><rect x="1356.56" y="46.78" width="46.78" height="46.78" fill="#f2f2f2"/><path d="M 1356.56 93.56 A 46.78 46.78 0 0 0 1403.34 46.78 L 1356.56 46.78" fill="#fbfbfb"/><rect x="1403.3333333333333" y="0" width="93.55555555555556" height="93.55555555555556" fill="#ffffff"/><rect x="1403.33" y="0" width="46.78" height="46.78" fill="#d7d7d7"/><path d="M 1403.33 46.78 A 46.78 46.78 0 0 1  1450.11 0 L 1450.11 46.78" fill="#f8f8f8"/><rect x="1450.11" y="0" width="46.78" height="46.78" fill="#fcfcfc"/><path d="M 1450.11 0 A 46.78 46.78 0 0 1 1496.8899999999999 46.78 L 1450.11 46.78" fill="#eaeaea"/><rect x="1403.33" y="46.78" width="46.78" height="46.78" fill="#eaeaea"/><path d="M 1403.33 46.78 A 46.78 46.78 0 0 0 1450.11 93.56 L 1450.11 46.78" fill="#f4f4f4"/><rect x="1450.11" y="46.78" width="46.78" height="46.78" fill="#f7f7f7"/><path d="M 1450.11 93.56 A 46.78 46.78 0 0 0 1496.8899999999999 46.78 L 1450.11 46.78" fill="#d3d3d3"/><rect x="0" y="93.56" width="93.56" height="93.56" fill="#e9e9e9"/><polygon points="93.56,93.56 93.56,187.12 0,187.12" fill="#eaeaea"/><rect x="93.55555555555556" y="93.55555555555556" width="93.55555555555556" height="93.55555555555556" fill="#ffffff"/><rect x="93.56" y="93.56" width="46.78" height="46.78" fill="#eaeaea"/><polygon points="140.34,93.56 140.34,140.34 93.56,140.34" fill="#d4d4d4"/><rect x="140.33" y="93.56" width="46.78" height="46.78" fill="#f4f4f4"/><polygon points="140.33,93.56 187.11,140.34 140.33,140.34" fill="#f2f2f2"/><rect x="93.56" y="140.33" width="46.78" height="46.78" fill="#ffffff"/><polygon points="93.56,140.33 140.34,140.33 140.34,187.11" fill="#f9f9f9"/><rect x="140.33" y="140.33" width="46.78" height="46.78" fill="#e7e7e7"/><polygon points="140.33,140.33 187.11,140.33 140.33,187.11" fill="#f6f6f6"/><rect x="187.11" y="93.56" width="93.56" height="93.56" fill="#ebebeb"/><rect x="187.11" y="93.56" width="93.56" height="93.56" fill="#f0f0f0"/><rect x="280.67" y="93.56" width="93.56" height="93.56" fill="#f1f1f1"/><polygon points="280.67,93.56 374.23,93.56 374.23,187.12" fill="#eaeaea"/><rect x="374.22" y="93.56" width="93.56" height="93.56" fill="#e5e5e5"/><rect x="374.22" y="93.56" width="93.56" height="93.56" fill="#fcfcfc"/><rect x="467.78" y="93.56" width="93.56" height="93.56" fill="#fafafa"/><path d="M 467.78 187.12 A 93.56 93.56 0 0 1  561.3399999999999 93.56 L 467.78 187.12 A 93.56 93.56 0 0 0 561.3399999999999 93.56" fill="#fbfbfb"/><rect x="561.33" y="93.56" width="93.56" height="93.56" fill="#f5f5f5"/><polygon points="654.8900000000001,93.56 654.8900000000001,187.12 561.33,187.12" fill="#f1f1f1"/><rect x="654.8888888888889" y="93.55555555555556" width="93.55555555555556" height="93.55555555555556" fill="#ffffff"/><rect x="654.89" y="93.56" width="46.78" height="46.78" fill="#fbfbfb"/><polygon points="701.67,93.56 701.67,140.34 654.89,140.34" fill="#e1e1e1"/><rect x="701.67" y="93.56" width="46.78" height="46.78" fill="#f5f5f5"/><polygon points="701.67,93.56 748.4499999999999,140.34 701.67,140.34" fill="#e7e7e7"/><rect x="654.89" y="140.33" width="46.78" height="46.78" fill="#e4e4e4"/><polygon points="654.89,140.33 701.67,140.33 654.89,187.11" fill="#efefef"/><rect x="701.67" y="140.33" width="46.78" height="46.78" fill="#fbfbfb"/><polygon points="701.67,140.33 748.4499999999999,140.33 748.4499999999999,187.11" fill="#ebebeb"/><rect x="748.44" y="93.56" width="93.56" height="93.56" fill="#ededed"/><path d="M 748.44 93.56 A 93.56 93.56 0 0 1  842 187.12 L 748.44 93.56 A 93.56 93.56 0 0 0 842 187.12" fill="#f4f4f4"/><rect x="842" y="93.56" width="93.56" height="93.56" fill="#eaeaea"/><path d="M 842 187.12 A 93.56 93.56 0 0 1  935.56 93.56 L 842 187.12 A 93.56 93.56 0 0 0 935.56 93.56" fill="#fefefe"/><rect x="935.5555555555555" y="93.55555555555556" width="93.55555555555556" height="93.55555555555556" fill="#ffffff"/><rect x="935.56" y="93.56" width="46.78" height="46.78" fill="#dddddd"/><circle cx="958.9499999999999" cy="116.95" r="23.39" fill="#efefef"/><rect x="982.33" y="93.56" width="46.78" height="46.78" fill="#d6d6d6"/><rect x="982.33" y="93.56" width="46.78" height="46.78" fill="#e9e9e9"/><rect x="935.56" y="140.33" width="46.78" height="46.78" fill="#d9d9d9"/><circle cx="958.9499999999999" cy="163.72000000000003" r="23.39" fill="#f5f5f5"/><rect x="982.33" y="140.33" width="46.78" height="46.78" fill="#eaeaea"/><rect x="982.33" y="140.33" width="46.78" height="46.78" fill="#f1f1f1"/><rect x="1029.11" y="93.56" width="93.56" height="93.56" fill="#e3e3e3"/><polygon points="1029.11,93.56 1122.6699999999998,93.56 1122.6699999999998,187.12" fill="#fcfcfc"/><rect x="1122.67" y="93.56" width="93.56" height="93.56" fill="#e9e9e9"/><rect x="1122.67" y="93.56" width="93.56" height="93.56" fill="#ededed"/><rect x="1216.2222222222222" y="93.55555555555556" width="93.55555555555556" height="93.55555555555556" fill="#ffffff"/><rect x="1216.22" y="93.56" width="46.78" height="46.78" fill="#fefefe"/><path d="M 1216.22 140.34 A 46.78 46.78 0 0 1  1263 93.56 L 1263 140.34" fill="#d9d9d9"/><rect x="1263" y="93.56" width="46.78" height="46.78" fill="#f3f3f3"/><path d="M 1263 93.56 A 46.78 46.78 0 0 1 1309.78 140.34 L 1263 140.34" fill="#d4d4d4"/><rect x="1216.22" y="140.33" width="46.78" height="46.78" fill="#fdfdfd"/><path d="M 1216.22 140.33 A 46.78 46.78 0 0 0 1263 187.11 L 1263 140.33" fill="#e9e9e9"/><rect x="1263" y="140.33" width="46.78" height="46.78" fill="#f3f3f3"/><path d="M 1263 187.11 A 46.78 46.78 0 0 0 1309.78 140.33 L 1263 140.33" fill="#e6e6e6"/><rect x="1309.7777777777778" y="93.55555555555556" width="93.55555555555556" height="93.55555555555556" fill="#ffffff"/><rect x="1309.78" y="93.56" width="46.78" height="46.78" fill="#f6f6f6"/><path d="M 1309.78 140.34 A 46.78 46.78 0 0 1 1356.56 93.56 L 1356.56 105.255 A 35.085 35.085 0 0 0 1321.475 140.34" fill="#dddddd"/><rect x="1356.56" y="93.56" width="46.78" height="46.78" fill="#d3d3d3"/><path d="M 1356.56 93.56 A 46.78 46.78 0 0 1 1403.34 140.34 L 1391.645 140.34 A 35.085 35.085 0 0 0 1356.56 105.255" fill="#d6d6d6"/><rect x="1309.78" y="140.33" width="46.78" height="46.78" fill="#dadada"/><path d="M 1309.78 140.33 A 46.78 46.78 0 0 0 1356.56 187.11 L 1356.56 175.41500000000002 A 35.085 35.085 0 0 1 1321.475 140.33" fill="#e9e9e9"/><rect x="1356.56" y="140.33" width="46.78" height="46.78" fill="#d5d5d5"/><path d="M 1356.56 187.11 A 46.78 46.78 0 0 0 1403.34 140.33 L 1391.645 140.33 A 35.085 35.085 0 0 1 1356.56 175.41500000000002" fill="#ebebeb"/><rect x="1403.33" y="93.56" width="93.56" height="93.56" fill="#fbfbfb"/><rect x="1403.33" y="93.56" width="93.56" height="93.56" fill="#f9f9f9"/><rect x="0" y="187.11111111111111" width="93.55555555555556" height="93.55555555555556" fill="#ffffff"/><rect x="0" y="187.11" width="46.78" height="46.78" fill="#ffffff"/><path d="M 0 233.89000000000001 A 46.78 46.78 0 0 0 46.78 187.11 L 0 187.11" fill="#e3e3e3"/><rect x="46.78" y="187.11" width="46.78" height="46.78" fill="#fbfbfb"/><path d="M 46.78 187.11 A 46.78 46.78 0 0 0 93.56 233.89000000000001 L 93.56 187.11" fill="#e7e7e7"/><rect x="0" y="233.89" width="46.78" height="46.78" fill="#fefefe"/><path d="M 0 233.89 A 46.78 46.78 0 0 1 46.78 280.66999999999996 L 0 280.66999999999996" fill="#f6f6f6"/><rect x="46.78" y="233.89" width="46.78" height="46.78" fill="#dadada"/><path d="M 46.78 280.66999999999996 A 46.78 46.78 0 0 1  93.56 233.89 L 93.56 280.66999999999996" fill="#f8f8f8"/><rect x="93.55555555555556" y="187.11111111111111" width="93.55555555555556" height="93.55555555555556" fill="#ffffff"/><rect x="93.56" y="187.11" width="46.78" height="46.78" fill="#e1e1e1"/><path d="M 93.56 233.89000000000001 A 46.78 46.78 0 0 1  140.34 187.11 L 140.34 233.89000000000001" fill="#d4d4d4"/><rect x="140.33" y="187.11" width="46.78" height="46.78" fill="#e7e7e7"/><path d="M 140.33 187.11 A 46.78 46.78 0 0 1 187.11 233.89000000000001 L 140.33 233.89000000000001" fill="#e1e1e1"/><rect x="93.56" y="233.89" width="46.78" height="46.78" fill="#d3d3d3"/><path d="M 93.56 233.89 A 46.78 46.78 0 0 0 140.34 280.66999999999996 L 140.34 233.89" fill="#fcfcfc"/><rect x="140.33" y="233.89" width="46.78" height="46.78" fill="#f6f6f6"/><path d="M 140.33 280.66999999999996 A 46.78 46.78 0 0 0 187.11 233.89 L 140.33 233.89" fill="#e9e9e9"/><rect x="187.11111111111111" y="187.11111111111111" width="93.55555555555556" height="93.55555555555556" fill="#ffffff"/><rect x="187.11" y="187.11" width="46.78" height="46.78" fill="#d9d9d9"/><path d="M 187.11 187.11 A 46.78 46.78 0 0 1 233.89000000000001 233.89000000000001 L 187.11 233.89000000000001" fill="#f4f4f4"/><rect x="233.89" y="187.11" width="46.78" height="46.78" fill="#eaeaea"/><path d="M 233.89 233.89000000000001 A 46.78 46.78 0 0 1  280.66999999999996 187.11 L 280.66999999999996 233.89000000000001" fill="#f4f4f4"/><rect x="187.11" y="233.89" width="46.78" height="46.78" fill="#ebebeb"/><path d="M 187.11 280.66999999999996 A 46.78 46.78 0 0 0 233.89000000000001 233.89 L 187.11 233.89" fill="#ececec"/><rect x="233.89" y="233.89" width="46.78" height="46.78" fill="#fafafa"/><path d="M 233.89 233.89 A 46.78 46.78 0 0 0 280.66999999999996 280.66999999999996 L 280.66999999999996 233.89" fill="#dfdfdf"/><rect x="280.67" y="187.11" width="93.56" height="93.56" fill="#eaeaea"/><rect x="280.67" y="187.11" width="93.56" height="93.56" fill="#f8f8f8"/><rect x="374.22222222222223" y="187.11111111111111" width="93.55555555555556" height="93.55555555555556" fill="#ffffff"/><rect x="374.22" y="187.11" width="46.78" height="46.78" fill="#eeeeee"/><polygon points="421,187.11 421,233.89000000000001 374.22,233.89000000000001" fill="#ffffff"/><rect x="421" y="187.11" width="46.78" height="46.78" fill="#f8f8f8"/><polygon points="421,187.11 467.78,233.89000000000001 421,233.89000000000001" fill="#f3f3f3"/><rect x="374.22" y="233.89" width="46.78" height="46.78" fill="#f2f2f2"/><polygon points="374.22,233.89 421,233.89 374.22,280.66999999999996" fill="#fdfdfd"/><rect x="421" y="233.89" width="46.78" height="46.78" fill="#f9f9f9"/><polygon points="421,233.89 467.78,233.89 467.78,280.66999999999996" fill="#f7f7f7"/><rect x="467.78" y="187.11" width="93.56" height="93.56" fill="#f0f0f0"/><path d="M 467.78 187.11 A 93.56 93.56 0 0 1 561.3399999999999 280.67 L 467.78 280.67" fill="#f9f9f9"/><rect x="561.33" y="187.11" width="93.56" height="93.56" fill="#e8e8e8"/><rect x="561.33" y="187.11" width="93.56" height="93.56" fill="#f0f0f0"/><rect x="654.89" y="187.11" width="93.56" height="93.56" fill="#eaeaea"/><path d="M 654.89 280.67 A 93.56 93.56 0 0 0 748.45 187.11 L 654.89 187.11" fill="#f1f1f1"/><rect x="748.44" y="187.11" width="93.56" height="93.56" fill="#f9f9f9"/><path d="M 748.44 187.11 A 93.56 93.56 0 0 1 842 280.67 L 748.44 280.67" fill="#f8f8f8"/><rect x="842" y="187.11" width="93.56" height="93.56" fill="#e7e7e7"/><rect x="842" y="187.11" width="93.56" height="93.56" fill="#ececec"/><rect x="935.56" y="187.11" width="93.56" height="93.56" fill="#f7f7f7"/><polygon points="935.56,187.11 1029.12,187.11 935.56,280.67" fill="#fefefe"/><rect x="1029.111111111111" y="187.11111111111111" width="93.55555555555556" height="93.55555555555556" fill="#ffffff"/><rect x="1029.11" y="187.11" width="46.78" height="46.78" fill="#efefef"/><path d="M 1029.11 233.89000000000001 A 46.78 46.78 0 0 1  1075.8899999999999 187.11 L 1075.8899999999999 233.89000000000001" fill="#f8f8f8"/><rect x="1075.89" y="187.11" width="46.78" height="46.78" fill="#fcfcfc"/><path d="M 1075.89 187.11 A 46.78 46.78 0 0 1 1122.67 233.89000000000001 L 1075.89 233.89000000000001" fill="#e9e9e9"/><rect x="1029.11" y="233.89" width="46.78" height="46.78" fill="#e1e1e1"/><path d="M 1029.11 233.89 A 46.78 46.78 0 0 0 1075.8899999999999 280.66999999999996 L 1075.8899999999999 233.89" fill="#d9d9d9"/><rect x="1075.89" y="233.89" width="46.78" height="46.78" fill="#fcfcfc"/><path d="M 1075.89 280.66999999999996 A 46.78 46.78 0 0 0 1122.67 233.89 L 1075.89 233.89" fill="#f6f6f6"/><rect x="1122.67" y="187.11" width="93.56" height="93.56" fill="#e0e0e0"/><polygon points="1216.23,187.11 1216.23,280.67 1122.67,280.67" fill="#efefef"/><rect x="1216.2222222222222" y="187.11111111111111" width="93.55555555555556" height="93.55555555555556" fill="#ffffff"/><rect x="1216.22" y="187.11" width="46.78" height="46.78" fill="#e8e8e8"/><polygon points="1263,187.11 1263,233.89000000000001 1216.22,233.89000000000001" fill="#f1f1f1"/><rect x="1263" y="187.11" width="46.78" height="46.78" fill="#ececec"/><polygon points="1263,187.11 1309.78,233.89000000000001 1263,233.89000000000001" fill="#ececec"/><rect x="1216.22" y="233.89" width="46.78" height="46.78" fill="#ffffff"/><polygon points="1216.22,233.89 1263,233.89 1216.22,280.66999999999996" fill="#fdfdfd"/><rect x="1263" y="233.89" width="46.78" height="46.78" fill="#ebebeb"/><polygon points="1263,233.89 1309.78,233.89 1309.78,280.66999999999996" fill="#dfdfdf"/><rect x="1309.78" y="187.11" width="93.56" height="93.56" fill="#e6e6e6"/><rect x="1309.78" y="187.11" width="93.56" height="93.56" fill="#efefef"/><rect x="1403.3333333333333" y="187.11111111111111" width="93.55555555555556" height="93.55555555555556" fill="#ffffff"/><rect x="1403.33" y="187.11" width="46.78" height="46.78" fill="#ededed"/><circle cx="1426.72" cy="210.5" r="23.39" fill="#f9f9f9"/><rect x="1450.11" y="187.11" width="46.78" height="46.78" fill="#fdfdfd"/><rect x="1450.11" y="187.11" width="46.78" height="46.78" fill="#efefef"/><rect x="1403.33" y="233.89" width="46.78" height="46.78" fill="#f3f3f3"/><circle cx="1426.72" cy="257.28" r="23.39" fill="#f9f9f9"/><rect x="1450.11" y="233.89" width="46.78" height="46.78" fill="#ededed"/><rect x="1450.11" y="233.89" width="46.78" height="46.78" fill="#f5f5f5"/><rect x="0" y="280.6666666666667" width="93.55555555555556" height="93.55555555555556" fill="#ffffff"/><rect x="0" y="280.67" width="46.78" height="46.78" fill="#f3f3f3"/><polygon points="46.78,280.67 46.78,327.45000000000005 0,327.45000000000005" fill="#f0f0f0"/><rect x="46.78" y="280.67" width="46.78" height="46.78" fill="#dbdbdb"/><polygon points="46.78,280.67 93.56,280.67 46.78,327.45000000000005" fill="#f1f1f1"/><rect x="0" y="327.44" width="46.78" height="46.78" fill="#d7d7d7"/><polygon points="0,327.44 46.78,327.44 46.78,374.22" fill="#fdfdfd"/><rect x="46.78" y="327.44" width="46.78" height="46.78" fill="#fbfbfb"/><polygon points="46.78,327.44 93.56,374.22 46.78,374.22" fill="#eeeeee"/><rect x="93.56" y="280.67" width="93.56" height="93.56" fill="#f8f8f8"/><polygon points="93.56,280.67 187.12,280.67 187.12,374.23" fill="#e9e9e9"/><rect x="187.11111111111111" y="280.6666666666667" width="93.55555555555556" height="93.55555555555556" fill="#ffffff"/><rect x="187.11" y="280.67" width="46.78" height="46.78" fill="#d5d5d5"/><path d="M 187.11 327.45000000000005 A 46.78 46.78 0 0 0 233.89000000000001 280.67 L 187.11 280.67" fill="#f3f3f3"/><rect x="233.89" y="280.67" width="46.78" height="46.78" fill="#fbfbfb"/><path d="M 233.89 280.67 A 46.78 46.78 0 0 0 280.66999999999996 327.45000000000005 L 280.66999999999996 280.67" fill="#dedede"/><rect x="187.11" y="327.44" width="46.78" height="46.78" fill="#f7f7f7"/><path d="M 187.11 327.44 A 46.78 46.78 0 0 1 233.89000000000001 374.22 L 187.11 374.22" fill="#e8e8e8"/><rect x="233.89" y="327.44" width="46.78" height="46.78" fill="#ededed"/><path d="M 233.89 374.22 A 46.78 46.78 0 0 1  280.66999999999996 327.44 L 280.66999999999996 374.22" fill="#e7e7e7"/><rect x="280.6666666666667" y="280.6666666666667" width="93.55555555555556" height="93.55555555555556" fill="#ffffff"/><rect x="280.67" y="280.67" width="46.78" height="46.78" fill="#ebebeb"/><path d="M 280.67 327.45000000000005 A 46.78 46.78 0 0 0 327.45000000000005 280.67 L 280.67 280.67" fill="#fdfdfd"/><rect x="327.44" y="280.67" width="46.78" height="46.78" fill="#e9e9e9"/><path d="M 327.44 280.67 A 46.78 46.78 0 0 0 374.22 327.45000000000005 L 374.22 280.67" fill="#e3e3e3"/><rect x="280.67" y="327.44" width="46.78" height="46.78" fill="#eaeaea"/><path d="M 280.67 327.44 A 46.78 46.78 0 0 1 327.45000000000005 374.22 L 280.67 374.22" fill="#dbdbdb"/><rect x="327.44" y="327.44" width="46.78" height="46.78" fill="#d4d4d4"/><path d="M 327.44 374.22 A 46.78 46.78 0 0 1  374.22 327.44 L 374.22 374.22" fill="#fdfdfd"/><rect x="374.22222222222223" y="280.6666666666667" width="93.55555555555556" height="93.55555555555556" fill="#ffffff"/><rect x="374.22" y="280.67" width="46.78" height="46.78" fill="#f2f2f2"/><path d="M 374.22 327.45000000000005 A 46.78 46.78 0 0 0 421 280.67 L 374.22 280.67" fill="#ffffff"/><rect x="421" y="280.67" width="46.78" height="46.78" fill="#dedede"/><path d="M 421 280.67 A 46.78 46.78 0 0 0 467.78 327.45000000000005 L 467.78 280.67" fill="#eeeeee"/><rect x="374.22" y="327.44" width="46.78" height="46.78" fill="#fdfdfd"/><path d="M 374.22 327.44 A 46.78 46.78 0 0 1 421 374.22 L 374.22 374.22" fill="#e7e7e7"/><rect x="421" y="327.44" width="46.78" height="46.78" fill="#d7d7d7"/><path d="M 421 374.22 A 46.78 46.78 0 0 1  467.78 327.44 L 467.78 374.22" fill="#fafafa"/><rect x="467.77777777777777" y="280.6666666666667" width="93.55555555555556" height="93.55555555555556" fill="#ffffff"/><rect x="467.78" y="280.67" width="46.78" height="46.78" fill="#dedede"/><polygon points="514.56,280.67 514.56,327.45000000000005 467.78,327.45000000000005" fill="#f4f4f4"/><rect x="514.56" y="280.67" width="46.78" height="46.78" fill="#e8e8e8"/><polygon points="514.56,280.67 561.3399999999999,327.45000000000005 514.56,327.45000000000005" fill="#d7d7d7"/><rect x="467.78" y="327.44" width="46.78" height="46.78" fill="#eaeaea"/><polygon points="467.78,327.44 514.56,327.44 514.56,374.22" fill="#e3e3e3"/><rect x="514.56" y="327.44" width="46.78" height="46.78" fill="#f2f2f2"/><polygon points="514.56,327.44 561.3399999999999,327.44 514.56,374.22" fill="#ebebeb"/><rect x="561.33" y="280.67" width="93.56" height="93.56" fill="#e7e7e7"/><rect x="561.33" y="280.67" width="93.56" height="93.56" fill="#dedede"/><rect x="654.89" y="280.67" width="93.56" height="93.56" fill="#efefef"/><rect x="654.89" y="280.67" width="93.56" height="93.56" fill="#f8f8f8"/><rect x="748.44" y="280.67" width="93.56" height="93.56" fill="#f2f2f2"/><rect x="748.44" y="280.67" width="93.56" height="93.56" fill="#f5f5f5"/><rect x="842" y="280.6666666666667" width="93.55555555555556" height="93.55555555555556" fill="#ffffff"/><rect x="842" y="280.67" width="46.78" height="46.78" fill="#e8e8e8"/><polygon points="888.78,280.67 888.78,327.45000000000005 842,327.45000000000005" fill="#fefefe"/><rect x="888.78" y="280.67" width="46.78" height="46.78" fill="#e9e9e9"/><polygon points="888.78,280.67 935.56,327.45000000000005 888.78,327.45000000000005" fill="#d6d6d6"/><rect x="842" y="327.44" width="46.78" height="46.78" fill="#f9f9f9"/><polygon points="842,327.44 888.78,327.44 888.78,374.22" fill="#fefefe"/><rect x="888.78" y="327.44" width="46.78" height="46.78" fill="#fcfcfc"/><polygon points="888.78,327.44 935.56,327.44 888.78,374.22" fill="#e7e7e7"/><rect x="935.5555555555555" y="280.6666666666667" width="93.55555555555556" height="93.55555555555556" fill="#ffffff"/><rect x="935.56" y="280.67" width="46.78" height="46.78" fill="#f8f8f8"/><polygon points="982.3399999999999,280.67 982.3399999999999,327.45000000000005 935.56,327.45000000000005" fill="#ebebeb"/><rect x="982.33" y="280.67" width="46.78" height="46.78" fill="#e0e0e0"/><polygon points="982.33,280.67 1029.1100000000001,327.45000000000005 982.33,327.45000000000005" fill="#eeeeee"/><rect x="935.56" y="327.44" width="46.78" height="46.78" fill="#ededed"/><polygon points="935.56,327.44 982.3399999999999,327.44 982.3399999999999,374.22" fill="#e9e9e9"/><rect x="982.33" y="327.44" width="46.78" height="46.78" fill="#e8e8e8"/><polygon points="982.33,327.44 1029.1100000000001,327.44 982.33,374.22" fill="#f1f1f1"/><rect x="1029.111111111111" y="280.6666666666667" width="93.55555555555556" height="93.55555555555556" fill="#ffffff"/><rect x="1029.11" y="280.67" width="46.78" height="46.78" fill="#e8e8e8"/><circle cx="1052.5" cy="304.06" r="23.39" fill="#e8e8e8"/><rect x="1075.89" y="280.67" width="46.78" height="46.78" fill="#f6f6f6"/><rect x="1075.89" y="280.67" width="46.78" height="46.78" fill="#e8e8e8"/><rect x="1029.11" y="327.44" width="46.78" height="46.78" fill="#fefefe"/><circle cx="1052.5" cy="350.83" r="23.39" fill="#f1f1f1"/><rect x="1075.89" y="327.44" width="46.78" height="46.78" fill="#f3f3f3"/><rect x="1075.89" y="327.44" width="46.78" height="46.78" fill="#e9e9e9"/><rect x="1122.67" y="280.67" width="93.56" height="93.56" fill="#efefef"/><path d="M 1122.67 280.67 A 93.56 93.56 0 0 1 1216.23 374.23 L 1122.67 374.23" fill="#fafafa"/><rect x="1216.2222222222222" y="280.6666666666667" width="93.55555555555556" height="93.55555555555556" fill="#ffffff"/><rect x="1216.22" y="280.67" width="46.78" height="46.78" fill="#f8f8f8"/><polygon points="1263,280.67 1263,327.45000000000005 1216.22,327.45000000000005" fill="#dcdcdc"/><rect x="1263" y="280.67" width="46.78" height="46.78" fill="#dddddd"/><polygon points="1263,280.67 1309.78,327.45000000000005 1263,327.45000000000005" fill="#e7e7e7"/><rect x="1216.22" y="327.44" width="46.78" height="46.78" fill="#dbdbdb"/><polygon points="1216.22,327.44 1263,327.44 1263,374.22" fill="#ececec"/><rect x="1263" y="327.44" width="46.78" height="46.78" fill="#f0f0f0"/><polygon points="1263,327.44 1309.78,327.44 1263,374.22" fill="#e9e9e9"/><rect x="1309.78" y="280.67" width="93.56" height="93.56" fill="#f4f4f4"/><path d="M 1309.78 280.67 A 93.56 93.56 0 0 1  1403.34 374.23 L 1309.78 280.67 A 93.56 93.56 0 0 0 1403.34 374.23" fill="#dbdbdb"/><rect x="1403.33" y="280.67" width="93.56" height="93.56" fill="#f1f1f1"/><polygon points="1403.33,280.67 1496.8899999999999,280.67 1496.8899999999999,374.23" fill="#f2f2f2"/><rect x="0" y="374.22" width="93.56" height="93.56" fill="#f0f0f0"/><rect x="0" y="374.22" width="93.56" height="93.56" fill="#f7f7f7"/><rect x="93.56" y="374.22" width="93.56" height="93.56" fill="#f8f8f8"/><polygon points="93.56,374.22 187.12,374.22 93.56,467.78000000000003" fill="#f5f5f5"/><rect x="187.11111111111111" y="374.22222222222223" width="93.55555555555556" height="93.55555555555556" fill="#ffffff"/><rect x="187.11" y="374.22" width="46.78" height="46.78" fill="#ededed"/><path d="M 187.11 374.22 A 46.78 46.78 0 0 0 233.89000000000001 421 L 233.89000000000001 374.22" fill="#f5f5f5"/><rect x="233.89" y="374.22" width="46.78" height="46.78" fill="#e1e1e1"/><path d="M 233.89 421 A 46.78 46.78 0 0 0 280.66999999999996 374.22 L 233.89 374.22" fill="#ededed"/><rect x="187.11" y="421" width="46.78" height="46.78" fill="#f4f4f4"/><path d="M 187.11 467.78 A 46.78 46.78 0 0 1  233.89000000000001 421 L 233.89000000000001 467.78" fill="#f7f7f7"/><rect x="233.89" y="421" width="46.78" height="46.78" fill="#e4e4e4"/><path d="M 233.89 421 A 46.78 46.78 0 0 1 280.66999999999996 467.78 L 233.89 467.78" fill="#f1f1f1"/><rect x="280.6666666666667" y="374.22222222222223" width="93.55555555555556" height="93.55555555555556" fill="#ffffff"/><rect x="280.67" y="374.22" width="46.78" height="46.78" fill="#e1e1e1"/><path d="M 280.67 421 A 46.78 46.78 0 0 0 327.45000000000005 374.22 L 280.67 374.22" fill="#ececec"/><rect x="327.44" y="374.22" width="46.78" height="46.78" fill="#f7f7f7"/><path d="M 327.44 374.22 A 46.78 46.78 0 0 0 374.22 421 L 374.22 374.22" fill="#dedede"/><rect x="280.67" y="421" width="46.78" height="46.78" fill="#fdfdfd"/><path d="M 280.67 421 A 46.78 46.78 0 0 1 327.45000000000005 467.78 L 280.67 467.78" fill="#d8d8d8"/><rect x="327.44" y="421" width="46.78" height="46.78" fill="#f9f9f9"/><path d="M 327.44 467.78 A 46.78 46.78 0 0 1  374.22 421 L 374.22 467.78" fill="#f7f7f7"/><rect x="374.22222222222223" y="374.22222222222223" width="93.55555555555556" height="93.55555555555556" fill="#ffffff"/><rect x="374.22" y="374.22" width="46.78" height="46.78" fill="#e9e9e9"/><path d="M 374.22 421 A 46.78 46.78 0 0 1  421 374.22 L 421 421" fill="#f6f6f6"/><rect x="421" y="374.22" width="46.78" height="46.78" fill="#ececec"/><path d="M 421 374.22 A 46.78 46.78 0 0 1 467.78 421 L 421 421" fill="#fcfcfc"/><rect x="374.22" y="421" width="46.78" height="46.78" fill="#d9d9d9"/><path d="M 374.22 421 A 46.78 46.78 0 0 0 421 467.78 L 421 421" fill="#efefef"/><rect x="421" y="421" width="46.78" height="46.78" fill="#f2f2f2"/><path d="M 421 467.78 A 46.78 46.78 0 0 0 467.78 421 L 421 421" fill="#f4f4f4"/><rect x="467.77777777777777" y="374.22222222222223" width="93.55555555555556" height="93.55555555555556" fill="#ffffff"/><rect x="467.78" y="374.22" width="46.78" height="46.78" fill="#f9f9f9"/><circle cx="491.16999999999996" cy="397.61" r="23.39" fill="#e7e7e7"/><rect x="514.56" y="374.22" width="46.78" height="46.78" fill="#eaeaea"/><rect x="514.56" y="374.22" width="46.78" height="46.78" fill="#dfdfdf"/><rect x="467.78" y="421" width="46.78" height="46.78" fill="#d9d9d9"/><circle cx="491.16999999999996" cy="444.39" r="23.39" fill="#f5f5f5"/><rect x="514.56" y="421" width="46.78" height="46.78" fill="#fcfcfc"/><rect x="514.56" y="421" width="46.78" height="46.78" fill="#f2f2f2"/><rect x="561.33" y="374.22" width="93.56" height="93.56" fill="#fefefe"/><path d="M 561.33 467.78000000000003 A 93.56 93.56 0 0 1  654.8900000000001 374.22 L 561.33 467.78000000000003 A 93.56 93.56 0 0 0 654.8900000000001 374.22" fill="#d8d8d8"/><rect x="654.89" y="374.22" width="93.56" height="93.56" fill="#fdfdfd"/><path d="M 654.89 467.78000000000003 A 93.56 93.56 0 0 0 748.45 374.22 L 654.89 374.22" fill="#f1f1f1"/><rect x="748.44" y="374.22" width="93.56" height="93.56" fill="#f7f7f7"/><rect x="748.44" y="374.22" width="93.56" height="93.56" fill="#e9e9e9"/><rect x="842" y="374.22222222222223" width="93.55555555555556" height="93.55555555555556" fill="#ffffff"/><rect x="842" y="374.22" width="46.78" height="46.78" fill="#fbfbfb"/><path d="M 842 374.22 A 46.78 46.78 0 0 1 888.78 421 L 842 421" fill="#e1e1e1"/><rect x="888.78" y="374.22" width="46.78" height="46.78" fill="#e8e8e8"/><path d="M 888.78 421 A 46.78 46.78 0 0 1  935.56 374.22 L 935.56 421" fill="#f9f9f9"/><rect x="842" y="421" width="46.78" height="46.78" fill="#f5f5f5"/><path d="M 842 467.78 A 46.78 46.78 0 0 0 888.78 421 L 842 421" fill="#fefefe"/><rect x="888.78" y="421" width="46.78" height="46.78" fill="#e7e7e7"/><path d="M 888.78 421 A 46.78 46.78 0 0 0 935.56 467.78 L 935.56 421" fill="#f6f6f6"/><rect x="935.5555555555555" y="374.22222222222223" width="93.55555555555556" height="93.55555555555556" fill="#ffffff"/><rect x="935.56" y="374.22" width="46.78" height="46.78" fill="#fcfcfc"/><path d="M 935.56 374.22 A 46.78 46.78 0 0 0 982.3399999999999 421 L 982.3399999999999 374.22" fill="#f7f7f7"/><rect x="982.33" y="374.22" width="46.78" height="46.78" fill="#d4d4d4"/><path d="M 982.33 421 A 46.78 46.78 0 0 0 1029.1100000000001 374.22 L 982.33 374.22" fill="#ededed"/><rect x="935.56" y="421" width="46.78" height="46.78" fill="#ffffff"/><path d="M 935.56 467.78 A 46.78 46.78 0 0 1  982.3399999999999 421 L 982.3399999999999 467.78" fill="#d7d7d7"/><rect x="982.33" y="421" width="46.78" height="46.78" fill="#fafafa"/><path d="M 982.33 421 A 46.78 46.78 0 0 1 1029.1100000000001 467.78 L 982.33 467.78" fill="#f7f7f7"/><rect x="1029.111111111111" y="374.22222222222223" width="93.55555555555556" height="93.55555555555556" fill="#ffffff"/><rect x="1029.11" y="374.22" width="46.78" height="46.78" fill="#fbfbfb"/><polygon points="1075.8899999999999,374.22 1075.8899999999999,421 1029.11,421" fill="#ededed"/><rect x="1075.89" y="374.22" width="46.78" height="46.78" fill="#f0f0f0"/><polygon points="1075.89,374.22 1122.67,421 1075.89,421" fill="#d3d3d3"/><rect x="1029.11" y="421" width="46.78" height="46.78" fill="#eeeeee"/><polygon points="1029.11,421 1075.8899999999999,421 1029.11,467.78" fill="#f7f7f7"/><rect x="1075.89" y="421" width="46.78" height="46.78" fill="#e5e5e5"/><polygon points="1075.89,421 1122.67,421 1122.67,467.78" fill="#eeeeee"/><rect x="1122.6666666666667" y="374.22222222222223" width="93.55555555555556" height="93.55555555555556" fill="#ffffff"/><rect x="1122.67" y="374.22" width="46.78" height="46.78" fill="#d3d3d3"/><path d="M 1122.67 421 A 46.78 46.78 0 0 1  1169.45 374.22 L 1169.45 421" fill="#e8e8e8"/><rect x="1169.44" y="374.22" width="46.78" height="46.78" fill="#f4f4f4"/><path d="M 1169.44 374.22 A 46.78 46.78 0 0 1 1216.22 421 L 1169.44 421" fill="#fafafa"/><rect x="1122.67" y="421" width="46.78" height="46.78" fill="#fafafa"/><path d="M 1122.67 421 A 46.78 46.78 0 0 0 1169.45 467.78 L 1169.45 421" fill="#f0f0f0"/><rect x="1169.44" y="421" width="46.78" height="46.78" fill="#f2f2f2"/><path d="M 1169.44 467.78 A 46.78 46.78 0 0 0 1216.22 421 L 1169.44 421" fill="#d3d3d3"/><rect x="1216.22" y="374.22" width="93.56" height="93.56" fill="#f8f8f8"/><polygon points="1216.22,374.22 1309.78,467.78000000000003 1216.22,467.78000000000003" fill="#ececec"/><rect x="1309.78" y="374.22" width="93.56" height="93.56" fill="#f1f1f1"/><polygon points="1309.78,374.22 1403.34,374.22 1403.34,467.78000000000003" fill="#ececec"/><rect x="1403.3333333333333" y="374.22222222222223" width="93.55555555555556" height="93.55555555555556" fill="#ffffff"/><rect x="1403.33" y="374.22" width="46.78" height="46.78" fill="#d1d1d1"/><polygon points="1450.11,374.22 1450.11,421 1403.33,421" fill="#e8e8e8"/><rect x="1450.11" y="374.22" width="46.78" height="46.78" fill="#f3f3f3"/><polygon points="1450.11,374.22 1496.8899999999999,374.22 1450.11,421" fill="#e8e8e8"/><rect x="1403.33" y="421" width="46.78" height="46.78" fill="#ececec"/><polygon points="1403.33,421 1450.11,421 1450.11,467.78" fill="#ebebeb"/><rect x="1450.11" y="421" width="46.78" height="46.78" fill="#f8f8f8"/><polygon points="1450.11,421 1496.8899999999999,467.78 1450.11,467.78" fill="#dddddd"/><rect x="0" y="467.78" width="93.56" height="93.56" fill="#e7e7e7"/><polygon points="0,467.78 93.56,561.3399999999999 0,561.3399999999999" fill="#d2d2d2"/><rect x="93.56" y="467.78" width="93.56" height="93.56" fill="#e1e1e1"/><polygon points="93.56,467.78 187.12,467.78 187.12,561.3399999999999" fill="#ededed"/><rect x="187.11" y="467.78" width="93.56" height="93.56" fill="#f2f2f2"/><polygon points="280.67,467.78 280.67,561.3399999999999 187.11,561.3399999999999" fill="#e8e8e8"/><rect x="280.67" y="467.78" width="93.56" height="93.56" fill="#e1e1e1"/><polygon points="280.67,467.78 374.23,561.3399999999999 280.67,561.3399999999999" fill="#f8f8f8"/><rect x="374.22222222222223" y="467.77777777777777" width="93.55555555555556" height="93.55555555555556" fill="#ffffff"/><rect x="374.22" y="467.78" width="46.78" height="46.78" fill="#fafafa"/><path d="M 374.22 514.56 A 46.78 46.78 0 0 1  421 467.78 L 421 514.56" fill="#eaeaea"/><rect x="421" y="467.78" width="46.78" height="46.78" fill="#fcfcfc"/><path d="M 421 467.78 A 46.78 46.78 0 0 1 467.78 514.56 L 421 514.56" fill="#eeeeee"/><rect x="374.22" y="514.56" width="46.78" height="46.78" fill="#fcfcfc"/><path d="M 374.22 514.56 A 46.78 46.78 0 0 0 421 561.3399999999999 L 421 514.56" fill="#fafafa"/><rect x="421" y="514.56" width="46.78" height="46.78" fill="#fbfbfb"/><path d="M 421 561.3399999999999 A 46.78 46.78 0 0 0 467.78 514.56 L 421 514.56" fill="#ececec"/><rect x="467.77777777777777" y="467.77777777777777" width="93.55555555555556" height="93.55555555555556" fill="#ffffff"/><rect x="467.78" y="467.78" width="46.78" height="46.78" fill="#ebebeb"/><path d="M 467.78 467.78 A 46.78 46.78 0 0 0 514.56 514.56 L 514.56 467.78" fill="#f6f6f6"/><rect x="514.56" y="467.78" width="46.78" height="46.78" fill="#d5d5d5"/><path d="M 514.56 514.56 A 46.78 46.78 0 0 0 561.3399999999999 467.78 L 514.56 467.78" fill="#f0f0f0"/><rect x="467.78" y="514.56" width="46.78" height="46.78" fill="#f4f4f4"/><path d="M 467.78 561.3399999999999 A 46.78 46.78 0 0 1  514.56 514.56 L 514.56 561.3399999999999" fill="#f3f3f3"/><rect x="514.56" y="514.56" width="46.78" height="46.78" fill="#f5f5f5"/><path d="M 514.56 514.56 A 46.78 46.78 0 0 1 561.3399999999999 561.3399999999999 L 514.56 561.3399999999999" fill="#e6e6e6"/><rect x="561.3333333333334" y="467.77777777777777" width="93.55555555555556" height="93.55555555555556" fill="#ffffff"/><rect x="561.33" y="467.78" width="46.78" height="46.78" fill="#f5f5f5"/><path d="M 561.33 514.56 A 46.78 46.78 0 0 1  608.11 467.78 L 608.11 514.56" fill="#f7f7f7"/><rect x="608.11" y="467.78" width="46.78" height="46.78" fill="#e4e4e4"/><path d="M 608.11 467.78 A 46.78 46.78 0 0 1 654.89 514.56 L 608.11 514.56" fill="#d6d6d6"/><rect x="561.33" y="514.56" width="46.78" height="46.78" fill="#d4d4d4"/><path d="M 561.33 514.56 A 46.78 46.78 0 0 0 608.11 561.3399999999999 L 608.11 514.56" fill="#e8e8e8"/><rect x="608.11" y="514.56" width="46.78" height="46.78" fill="#fdfdfd"/><path d="M 608.11 561.3399999999999 A 46.78 46.78 0 0 0 654.89 514.56 L 608.11 514.56" fill="#f3f3f3"/><rect x="654.8888888888889" y="467.77777777777777" width="93.55555555555556" height="93.55555555555556" fill="#ffffff"/><rect x="654.89" y="467.78" width="46.78" height="46.78" fill="#f4f4f4"/><path d="M 654.89 514.56 A 46.78 46.78 0 0 0 701.67 467.78 L 654.89 467.78" fill="#f8f8f8"/><rect x="701.67" y="467.78" width="46.78" height="46.78" fill="#e7e7e7"/><path d="M 701.67 467.78 A 46.78 46.78 0 0 0 748.4499999999999 514.56 L 748.4499999999999 467.78" fill="#eaeaea"/><rect x="654.89" y="514.56" width="46.78" height="46.78" fill="#fafafa"/><path d="M 654.89 514.56 A 46.78 46.78 0 0 1 701.67 561.3399999999999 L 654.89 561.3399999999999" fill="#f1f1f1"/><rect x="701.67" y="514.56" width="46.78" height="46.78" fill="#d9d9d9"/><path d="M 701.67 561.3399999999999 A 46.78 46.78 0 0 1  748.4499999999999 514.56 L 748.4499999999999 561.3399999999999" fill="#dbdbdb"/><rect x="748.44" y="467.78" width="93.56" height="93.56" fill="#f0f0f0"/><polygon points="748.44,467.78 842,561.3399999999999 748.44,561.3399999999999" fill="#efefef"/><rect x="842" y="467.77777777777777" width="93.55555555555556" height="93.55555555555556" fill="#ffffff"/><rect x="842" y="467.78" width="46.78" height="46.78" fill="#dfdfdf"/><path d="M 842 467.78 A 46.78 46.78 0 0 1 888.78 514.56 L 842 514.56" fill="#e3e3e3"/><rect x="888.78" y="467.78" width="46.78" height="46.78" fill="#eeeeee"/><path d="M 888.78 514.56 A 46.78 46.78 0 0 1  935.56 467.78 L 935.56 514.56" fill="#fdfdfd"/><rect x="842" y="514.56" width="46.78" height="46.78" fill="#ebebeb"/><path d="M 842 561.3399999999999 A 46.78 46.78 0 0 0 888.78 514.56 L 842 514.56" fill="#ededed"/><rect x="888.78" y="514.56" width="46.78" height="46.78" fill="#f1f1f1"/><path d="M 888.78 514.56 A 46.78 46.78 0 0 0 935.56 561.3399999999999 L 935.56 514.56" fill="#e0e0e0"/><rect x="935.5555555555555" y="467.77777777777777" width="93.55555555555556" height="93.55555555555556" fill="#ffffff"/><rect x="935.56" y="467.78" width="46.78" height="46.78" fill="#e3e3e3"/><circle cx="958.9499999999999" cy="491.16999999999996" r="23.39" fill="#eeeeee"/><rect x="982.33" y="467.78" width="46.78" height="46.78" fill="#d5d5d5"/><rect x="982.33" y="467.78" width="46.78" height="46.78" fill="#d4d4d4"/><rect x="935.56" y="514.56" width="46.78" height="46.78" fill="#e9e9e9"/><circle cx="958.9499999999999" cy="537.9499999999999" r="23.39" fill="#f2f2f2"/><rect x="982.33" y="514.56" width="46.78" height="46.78" fill="#fbfbfb"/><rect x="982.33" y="514.56" width="46.78" height="46.78" fill="#f6f6f6"/><rect x="1029.11" y="467.78" width="93.56" height="93.56" fill="#fefefe"/><rect x="1029.11" y="467.78" width="93.56" height="93.56" fill="#f7f7f7"/><rect x="1122.6666666666667" y="467.77777777777777" width="93.55555555555556" height="93.55555555555556" fill="#ffffff"/><rect x="1122.67" y="467.78" width="46.78" height="46.78" fill="#e8e8e8"/><path d="M 1122.67 514.56 A 46.78 46.78 0 0 1 1169.45 467.78 L 1169.45 479.47499999999997 A 35.085 35.085 0 0 0 1134.365 514.56" fill="#fbfbfb"/><rect x="1169.44" y="467.78" width="46.78" height="46.78" fill="#d2d2d2"/><path d="M 1169.44 467.78 A 46.78 46.78 0 0 1 1216.22 514.56 L 1204.525 514.56 A 35.085 35.085 0 0 0 1169.44 479.47499999999997" fill="#fcfcfc"/><rect x="1122.67" y="514.56" width="46.78" height="46.78" fill="#d5d5d5"/><path d="M 1122.67 514.56 A 46.78 46.78 0 0 0 1169.45 561.3399999999999 L 1169.45 549.645 A 35.085 35.085 0 0 1 1134.365 514.56" fill="#fdfdfd"/><rect x="1169.44" y="514.56" width="46.78" height="46.78" fill="#f9f9f9"/><path d="M 1169.44 561.3399999999999 A 46.78 46.78 0 0 0 1216.22 514.56 L 1204.525 514.56 A 35.085 35.085 0 0 1 1169.44 549.645" fill="#d5d5d5"/><rect x="1216.2222222222222" y="467.77777777777777" width="93.55555555555556" height="93.55555555555556" fill="#ffffff"/><rect x="1216.22" y="467.78" width="46.78" height="46.78" fill="#fdfdfd"/><path d="M 1216.22 514.56 A 46.78 46.78 0 0 0 1263 467.78 L 1216.22 467.78" fill="#f4f4f4"/><rect x="1263" y="467.78" width="46.78" height="46.78" fill="#fafafa"/><path d="M 1263 467.78 A 46.78 46.78 0 0 0 1309.78 514.56 L 1309.78 467.78" fill="#f1f1f1"/><rect x="1216.22" y="514.56" width="46.78" height="46.78" fill="#ededed"/><path d="M 1216.22 514.56 A 46.78 46.78 0 0 1 1263 561.3399999999999 L 1216.22 561.3399999999999" fill="#d1d1d1"/><rect x="1263" y="514.56" width="46.78" height="46.78" fill="#f7f7f7"/><path d="M 1263 561.3399999999999 A 46.78 46.78 0 0 1  1309.78 514.56 L 1309.78 561.3399999999999" fill="#e9e9e9"/><rect x="1309.7777777777778" y="467.77777777777777" width="93.55555555555556" height="93.55555555555556" fill="#ffffff"/><rect x="1309.78" y="467.78" width="46.78" height="46.78" fill="#e3e3e3"/><polygon points="1356.56,467.78 1356.56,514.56 1309.78,514.56" fill="#f2f2f2"/><rect x="1356.56" y="467.78" width="46.78" height="46.78" fill="#fafafa"/><polygon points="1356.56,467.78 1403.34,467.78 1356.56,514.56" fill="#f6f6f6"/><rect x="1309.78" y="514.56" width="46.78" height="46.78" fill="#dadada"/><polygon points="1309.78,514.56 1356.56,514.56 1356.56,561.3399999999999" fill="#fefefe"/><rect x="1356.56" y="514.56" width="46.78" height="46.78" fill="#f4f4f4"/><polygon points="1356.56,514.56 1403.34,561.3399999999999 1356.56,561.3399999999999" fill="#f3f3f3"/><rect x="1403.3333333333333" y="467.77777777777777" width="93.55555555555556" height="93.55555555555556" fill="#ffffff"/><rect x="1403.33" y="467.78" width="46.78" height="46.78" fill="#dcdcdc"/><circle cx="1426.72" cy="491.16999999999996" r="23.39" fill="#e7e7e7"/><rect x="1450.11" y="467.78" width="46.78" height="46.78" fill="#e6e6e6"/><rect x="1450.11" y="467.78" width="46.78" height="46.78" fill="#ececec"/><rect x="1403.33" y="514.56" width="46.78" height="46.78" fill="#dadada"/><circle cx="1426.72" cy="537.9499999999999" r="23.39" fill="#f1f1f1"/><rect x="1450.11" y="514.56" width="46.78" height="46.78" fill="#f5f5f5"/><rect x="1450.11" y="514.56" width="46.78" height="46.78" fill="#e8e8e8"/><rect x="0" y="561.3333333333334" width="93.55555555555556" height="93.55555555555556" fill="#ffffff"/><rect x="0" y="561.33" width="46.78" height="46.78" fill="#e2e2e2"/><path d="M 0 561.33 A 46.78 46.78 0 0 0 46.78 608.11 L 46.78 561.33" fill="#efefef"/><rect x="46.78" y="561.33" width="46.78" height="46.78" fill="#dfdfdf"/><path d="M 46.78 608.11 A 46.78 46.78 0 0 0 93.56 561.33 L 46.78 561.33" fill="#f9f9f9"/><rect x="0" y="608.11" width="46.78" height="46.78" fill="#dbdbdb"/><path d="M 0 654.89 A 46.78 46.78 0 0 1  46.78 608.11 L 46.78 654.89" fill="#f4f4f4"/><rect x="46.78" y="608.11" width="46.78" height="46.78" fill="#fafafa"/><path d="M 46.78 608.11 A 46.78 46.78 0 0 1 93.56 654.89 L 46.78 654.89" fill="#eeeeee"/><rect x="93.56" y="561.33" width="93.56" height="93.56" fill="#f5f5f5"/><path d="M 93.56 654.8900000000001 A 93.56 93.56 0 0 1  187.12 561.33 L 187.12 654.8900000000001" fill="#ebebeb"/><rect x="187.11111111111111" y="561.3333333333334" width="93.55555555555556" height="93.55555555555556" fill="#ffffff"/><rect x="187.11" y="561.33" width="46.78" height="46.78" fill="#f0f0f0"/><path d="M 187.11 608.11 A 46.78 46.78 0 0 1  233.89000000000001 561.33 L 233.89000000000001 608.11" fill="#ffffff"/><rect x="233.89" y="561.33" width="46.78" height="46.78" fill="#eeeeee"/><path d="M 233.89 561.33 A 46.78 46.78 0 0 1 280.66999999999996 608.11 L 233.89 608.11" fill="#f5f5f5"/><rect x="187.11" y="608.11" width="46.78" height="46.78" fill="#e0e0e0"/><path d="M 187.11 608.11 A 46.78 46.78 0 0 0 233.89000000000001 654.89 L 233.89000000000001 608.11" fill="#fefefe"/><rect x="233.89" y="608.11" width="46.78" height="46.78" fill="#dbdbdb"/><path d="M 233.89 654.89 A 46.78 46.78 0 0 0 280.66999999999996 608.11 L 233.89 608.11" fill="#f5f5f5"/><rect x="280.67" y="561.33" width="93.56" height="93.56" fill="#efefef"/><path d="M 280.67 561.33 A 93.56 93.56 0 0 1 374.23 654.8900000000001 L 280.67 654.8900000000001" fill="#dedede"/><rect x="374.22222222222223" y="561.3333333333334" width="93.55555555555556" height="93.55555555555556" fill="#ffffff"/><rect x="374.22" y="561.33" width="46.78" height="46.78" fill="#e9e9e9"/><polygon points="421,561.33 421,608.11 374.22,608.11" fill="#ebebeb"/><rect x="421" y="561.33" width="46.78" height="46.78" fill="#e4e4e4"/><polygon points="421,561.33 467.78,608.11 421,608.11" fill="#e9e9e9"/><rect x="374.22" y="608.11" width="46.78" height="46.78" fill="#d1d1d1"/><polygon points="374.22,608.11 421,608.11 421,654.89" fill="#dfdfdf"/><rect x="421" y="608.11" width="46.78" height="46.78" fill="#f5f5f5"/><polygon points="421,608.11 467.78,608.11 421,654.89" fill="#e9e9e9"/><rect x="467.77777777777777" y="561.3333333333334" width="93.55555555555556" height="93.55555555555556" fill="#ffffff"/><rect x="467.78" y="561.33" width="46.78" height="46.78" fill="#f0f0f0"/><path d="M 467.78 608.11 A 46.78 46.78 0 0 0 514.56 561.33 L 467.78 561.33" fill="#f1f1f1"/><rect x="514.56" y="561.33" width="46.78" height="46.78" fill="#efefef"/><path d="M 514.56 561.33 A 46.78 46.78 0 0 0 561.3399999999999 608.11 L 561.3399999999999 561.33" fill="#f2f2f2"/><rect x="467.78" y="608.11" width="46.78" height="46.78" fill="#efefef"/><path d="M 467.78 608.11 A 46.78 46.78 0 0 1 514.56 654.89 L 467.78 654.89" fill="#f9f9f9"/><rect x="514.56" y="608.11" width="46.78" height="46.78" fill="#fcfcfc"/><path d="M 514.56 654.89 A 46.78 46.78 0 0 1  561.3399999999999 608.11 L 561.3399999999999 654.89" fill="#ededed"/><rect x="561.3333333333334" y="561.3333333333334" width="93.55555555555556" height="93.55555555555556" fill="#ffffff"/><rect x="561.33" y="561.33" width="46.78" height="46.78" fill="#f8f8f8"/><circle cx="584.72" cy="584.72" r="23.39" fill="#dbdbdb"/><rect x="608.11" y="561.33" width="46.78" height="46.78" fill="#fdfdfd"/><rect x="608.11" y="561.33" width="46.78" height="46.78" fill="#fbfbfb"/><rect x="561.33" y="608.11" width="46.78" height="46.78" fill="#f2f2f2"/><circle cx="584.72" cy="631.5" r="23.39" fill="#f4f4f4"/><rect x="608.11" y="608.11" width="46.78" height="46.78" fill="#f6f6f6"/><rect x="608.11" y="608.11" width="46.78" height="46.78" fill="#e0e0e0"/><rect x="654.8888888888889" y="561.3333333333334" width="93.55555555555556" height="93.55555555555556" fill="#ffffff"/><rect x="654.89" y="561.33" width="46.78" height="46.78" fill="#f9f9f9"/><path d="M 654.89 608.11 A 46.78 46.78 0 0 0 701.67 561.33 L 654.89 561.33" fill="#eeeeee"/><rect x="701.67" y="561.33" width="46.78" height="46.78" fill="#e3e3e3"/><path d="M 701.67 561.33 A 46.78 46.78 0 0 0 748.4499999999999 608.11 L 748.4499999999999 561.33" fill="#fefefe"/><rect x="654.89" y="608.11" width="46.78" height="46.78" fill="#f5f5f5"/><path d="M 654.89 608.11 A 46.78 46.78 0 0 1 701.67 654.89 L 654.89 654.89" fill="#ffffff"/><rect x="701.67" y="608.11" width="46.78" height="46.78" fill="#e6e6e6"/><path d="M 701.67 654.89 A 46.78 46.78 0 0 1  748.4499999999999 608.11 L 748.4499999999999 654.89" fill="#eeeeee"/><rect x="748.44" y="561.33" width="93.56" height="93.56" fill="#d9d9d9"/><rect x="748.44" y="561.33" width="93.56" height="93.56" fill="#e4e4e4"/><rect x="842" y="561.33" width="93.56" height="93.56" fill="#d4d4d4"/><path d="M 842 561.33 A 93.56 93.56 0 0 0 935.56 654.8900000000001 L 935.56 561.33" fill="#dfdfdf"/><rect x="935.5555555555555" y="561.3333333333334" width="93.55555555555556" height="93.55555555555556" fill="#ffffff"/><rect x="935.56" y="561.33" width="46.78" height="46.78" fill="#f9f9f9"/><path d="M 935.56 561.33 A 46.78 46.78 0 0 0 982.3399999999999 608.11 L 982.3399999999999 561.33" fill="#fefefe"/><rect x="982.33" y="561.33" width="46.78" height="46.78" fill="#fefefe"/><path d="M 982.33 608.11 A 46.78 46.78 0 0 0 1029.1100000000001 561.33 L 982.33 561.33" fill="#f1f1f1"/><rect x="935.56" y="608.11" width="46.78" height="46.78" fill="#fbfbfb"/><path d="M 935.56 654.89 A 46.78 46.78 0 0 1  982.3399999999999 608.11 L 982.3399999999999 654.89" fill="#f4f4f4"/><rect x="982.33" y="608.11" width="46.78" height="46.78" fill="#e0e0e0"/><path d="M 982.33 608.11 A 46.78 46.78 0 0 1 1029.1100000000001 654.89 L 982.33 654.89" fill="#f0f0f0"/><rect x="1029.11" y="561.33" width="93.56" height="93.56" fill="#d6d6d6"/><rect x="1029.11" y="561.33" width="93.56" height="93.56" fill="#ececec"/><rect x="1122.67" y="561.33" width="93.56" height="93.56" fill="#fdfdfd"/><rect x="1122.67" y="561.33" width="93.56" height="93.56" fill="#fdfdfd"/><rect x="1216.2222222222222" y="561.3333333333334" width="93.55555555555556" height="93.55555555555556" fill="#ffffff"/><rect x="1216.22" y="561.33" width="46.78" height="46.78" fill="#f9f9f9"/><polygon points="1263,561.33 1263,608.11 1216.22,608.11" fill="#f1f1f1"/><rect x="1263" y="561.33" width="46.78" height="46.78" fill="#f4f4f4"/><polygon points="1263,561.33 1309.78,608.11 1263,608.11" fill="#f6f6f6"/><rect x="1216.22" y="608.11" width="46.78" height="46.78" fill="#e0e0e0"/><polygon points="1216.22,608.11 1263,608.11 1263,654.89" fill="#ebebeb"/><rect x="1263" y="608.11" width="46.78" height="46.78" fill="#f5f5f5"/><polygon points="1263,608.11 1309.78,608.11 1263,654.89" fill="#f1f1f1"/><rect x="1309.7777777777778" y="561.3333333333334" width="93.55555555555556" height="93.55555555555556" fill="#ffffff"/><rect x="1309.78" y="561.33" width="46.78" height="46.78" fill="#ebebeb"/><polygon points="1356.56,561.33 1356.56,608.11 1309.78,608.11" fill="#ededed"/><rect x="1356.56" y="561.33" width="46.78" height="46.78" fill="#e6e6e6"/><polygon points="1356.56,561.33 1403.34,608.11 1356.56,608.11" fill="#e9e9e9"/><rect x="1309.78" y="608.11" width="46.78" height="46.78" fill="#f7f7f7"/><polygon points="1309.78,608.11 1356.56,608.11 1356.56,654.89" fill="#ececec"/><rect x="1356.56" y="608.11" width="46.78" height="46.78" fill="#fdfdfd"/><polygon points="1356.56,608.11 1403.34,608.11 1356.56,654.89" fill="#ececec"/><rect x="1403.3333333333333" y="561.3333333333334" width="93.55555555555556" height="93.55555555555556" fill="#ffffff"/><rect x="1403.33" y="561.33" width="46.78" height="46.78" fill="#e9e9e9"/><circle cx="1426.72" cy="584.72" r="23.39" fill="#fcfcfc"/><rect x="1450.11" y="561.33" width="46.78" height="46.78" fill="#eaeaea"/><rect x="1450.11" y="561.33" width="46.78" height="46.78" fill="#f7f7f7"/><rect x="1403.33" y="608.11" width="46.78" height="46.78" fill="#d8d8d8"/><circle cx="1426.72" cy="631.5" r="23.39" fill="#fefefe"/><rect x="1450.11" y="608.11" width="46.78" height="46.78" fill="#d3d3d3"/><rect x="1450.11" y="608.11" width="46.78" height="46.78" fill="#e1e1e1"/><rect x="0" y="654.89" width="93.56" height="93.56" fill="#f5f5f5"/><rect x="0" y="654.89" width="93.56" height="93.56" fill="#fafafa"/><rect x="93.55555555555556" y="654.8888888888889" width="93.55555555555556" height="93.55555555555556" fill="#ffffff"/><rect x="93.56" y="654.89" width="46.78" height="46.78" fill="#e0e0e0"/><path d="M 93.56 701.67 A 46.78 46.78 0 0 1 140.34 654.89 L 140.34 666.585 A 35.085 35.085 0 0 0 105.255 701.67" fill="#e8e8e8"/><rect x="140.33" y="654.89" width="46.78" height="46.78" fill="#dbdbdb"/><path d="M 140.33 654.89 A 46.78 46.78 0 0 1 187.11 701.67 L 175.41500000000002 701.67 A 35.085 35.085 0 0 0 140.33 666.585" fill="#fcfcfc"/><rect x="93.56" y="701.67" width="46.78" height="46.78" fill="#d2d2d2"/><path d="M 93.56 701.67 A 46.78 46.78 0 0 0 140.34 748.4499999999999 L 140.34 736.755 A 35.085 35.085 0 0 1 105.255 701.67" fill="#f7f7f7"/><rect x="140.33" y="701.67" width="46.78" height="46.78" fill="#d4d4d4"/><path d="M 140.33 748.4499999999999 A 46.78 46.78 0 0 0 187.11 701.67 L 175.41500000000002 701.67 A 35.085 35.085 0 0 1 140.33 736.755" fill="#e3e3e3"/><rect x="187.11111111111111" y="654.8888888888889" width="93.55555555555556" height="93.55555555555556" fill="#ffffff"/><rect x="187.11" y="654.89" width="46.78" height="46.78" fill="#ececec"/><circle cx="210.5" cy="678.28" r="23.39" fill="#e8e8e8"/><rect x="233.89" y="654.89" width="46.78" height="46.78" fill="#f7f7f7"/><rect x="233.89" y="654.89" width="46.78" height="46.78" fill="#fefefe"/><rect x="187.11" y="701.67" width="46.78" height="46.78" fill="#f8f8f8"/><circle cx="210.5" cy="725.06" r="23.39" fill="#f0f0f0"/><rect x="233.89" y="701.67" width="46.78" height="46.78" fill="#f1f1f1"/><rect x="233.89" y="701.67" width="46.78" height="46.78" fill="#e9e9e9"/><rect x="280.67" y="654.89" width="93.56" height="93.56" fill="#eeeeee"/><path d="M 280.67 748.45 A 93.56 93.56 0 0 0 374.23 654.89 L 280.67 654.89" fill="#ededed"/><rect x="374.22222222222223" y="654.8888888888889" width="93.55555555555556" height="93.55555555555556" fill="#ffffff"/><rect x="374.22" y="654.89" width="46.78" height="46.78" fill="#f3f3f3"/><polygon points="421,654.89 421,701.67 374.22,701.67" fill="#f7f7f7"/><rect x="421" y="654.89" width="46.78" height="46.78" fill="#e7e7e7"/><polygon points="421,654.89 467.78,701.67 421,701.67" fill="#f1f1f1"/><rect x="374.22" y="701.67" width="46.78" height="46.78" fill="#ececec"/><polygon points="374.22,701.67 421,701.67 421,748.4499999999999" fill="#f3f3f3"/><rect x="421" y="701.67" width="46.78" height="46.78" fill="#f8f8f8"/><polygon points="421,701.67 467.78,701.67 421,748.4499999999999" fill="#e0e0e0"/><rect x="467.77777777777777" y="654.8888888888889" width="93.55555555555556" height="93.55555555555556" fill="#ffffff"/><rect x="467.78" y="654.89" width="46.78" height="46.78" fill="#f8f8f8"/><circle cx="491.16999999999996" cy="678.28" r="23.39" fill="#e9e9e9"/><rect x="514.56" y="654.89" width="46.78" height="46.78" fill="#ffffff"/><rect x="514.56" y="654.89" width="46.78" height="46.78" fill="#fcfcfc"/><rect x="467.78" y="701.67" width="46.78" height="46.78" fill="#efefef"/><circle cx="491.16999999999996" cy="725.06" r="23.39" fill="#fefefe"/><rect x="514.56" y="701.67" width="46.78" height="46.78" fill="#f3f3f3"/><rect x="514.56" y="701.67" width="46.78" height="46.78" fill="#f1f1f1"/><rect x="561.33" y="654.89" width="93.56" height="93.56" fill="#ededed"/><rect x="561.33" y="654.89" width="93.56" height="93.56" fill="#e6e6e6"/><rect x="654.8888888888889" y="654.8888888888889" width="93.55555555555556" height="93.55555555555556" fill="#ffffff"/><rect x="654.89" y="654.89" width="46.78" height="46.78" fill="#eaeaea"/><path d="M 654.89 701.67 A 46.78 46.78 0 0 0 701.67 654.89 L 654.89 654.89" fill="#e9e9e9"/><rect x="701.67" y="654.89" width="46.78" height="46.78" fill="#e3e3e3"/><path d="M 701.67 654.89 A 46.78 46.78 0 0 0 748.4499999999999 701.67 L 748.4499999999999 654.89" fill="#f3f3f3"/><rect x="654.89" y="701.67" width="46.78" height="46.78" fill="#ffffff"/><path d="M 654.89 701.67 A 46.78 46.78 0 0 1 701.67 748.4499999999999 L 654.89 748.4499999999999" fill="#fcfcfc"/><rect x="701.67" y="701.67" width="46.78" height="46.78" fill="#dfdfdf"/><path d="M 701.67 748.4499999999999 A 46.78 46.78 0 0 1  748.4499999999999 701.67 L 748.4499999999999 748.4499999999999" fill="#fdfdfd"/><rect x="748.44" y="654.89" width="93.56" height="93.56" fill="#f7f7f7"/><path d="M 748.44 748.45 A 93.56 93.56 0 0 1  842 654.89 L 748.44 748.45 A 93.56 93.56 0 0 0 842 654.89" fill="#e3e3e3"/><rect x="842" y="654.89" width="93.56" height="93.56" fill="#f5f5f5"/><polygon points="842,654.89 935.56,654.89 935.56,748.45" fill="#f1f1f1"/><rect x="935.5555555555555" y="654.8888888888889" width="93.55555555555556" height="93.55555555555556" fill="#ffffff"/><rect x="935.56" y="654.89" width="46.78" height="46.78" fill="#f6f6f6"/><path d="M 935.56 701.67 A 46.78 46.78 0 0 1  982.3399999999999 654.89 L 982.3399999999999 701.67" fill="#ececec"/><rect x="982.33" y="654.89" width="46.78" height="46.78" fill="#f5f5f5"/><path d="M 982.33 654.89 A 46.78 46.78 0 0 1 1029.1100000000001 701.67 L 982.33 701.67" fill="#f2f2f2"/><rect x="935.56" y="701.67" width="46.78" height="46.78" fill="#f1f1f1"/><path d="M 935.56 701.67 A 46.78 46.78 0 0 0 982.3399999999999 748.4499999999999 L 982.3399999999999 701.67" fill="#ededed"/><rect x="982.33" y="701.67" width="46.78" height="46.78" fill="#fcfcfc"/><path d="M 982.33 748.4499999999999 A 46.78 46.78 0 0 0 1029.1100000000001 701.67 L 982.33 701.67" fill="#fcfcfc"/><rect x="1029.111111111111" y="654.8888888888889" width="93.55555555555556" height="93.55555555555556" fill="#ffffff"/><rect x="1029.11" y="654.89" width="46.78" height="46.78" fill="#e7e7e7"/><path d="M 1029.11 701.67 A 46.78 46.78 0 0 1  1075.8899999999999 654.89 L 1075.8899999999999 701.67" fill="#f1f1f1"/><rect x="1075.89" y="654.89" width="46.78" height="46.78" fill="#ececec"/><path d="M 1075.89 654.89 A 46.78 46.78 0 0 1 1122.67 701.67 L 1075.89 701.67" fill="#fefefe"/><rect x="1029.11" y="701.67" width="46.78" height="46.78" fill="#f5f5f5"/><path d="M 1029.11 701.67 A 46.78 46.78 0 0 0 1075.8899999999999 748.4499999999999 L 1075.8899999999999 701.67" fill="#d5d5d5"/><rect x="1075.89" y="701.67" width="46.78" height="46.78" fill="#fdfdfd"/><path d="M 1075.89 748.4499999999999 A 46.78 46.78 0 0 0 1122.67 701.67 L 1075.89 701.67" fill="#f3f3f3"/><rect x="1122.6666666666667" y="654.8888888888889" width="93.55555555555556" height="93.55555555555556" fill="#ffffff"/><rect x="1122.67" y="654.89" width="46.78" height="46.78" fill="#f2f2f2"/><path d="M 1122.67 701.67 A 46.78 46.78 0 0 1  1169.45 654.89 L 1169.45 701.67" fill="#e7e7e7"/><rect x="1169.44" y="654.89" width="46.78" height="46.78" fill="#e7e7e7"/><path d="M 1169.44 654.89 A 46.78 46.78 0 0 1 1216.22 701.67 L 1169.44 701.67" fill="#fdfdfd"/><rect x="1122.67" y="701.67" width="46.78" height="46.78" fill="#eeeeee"/><path d="M 1122.67 701.67 A 46.78 46.78 0 0 0 1169.45 748.4499999999999 L 1169.45 701.67" fill="#e2e2e2"/><rect x="1169.44" y="701.67" width="46.78" height="46.78" fill="#fcfcfc"/><path d="M 1169.44 748.4499999999999 A 46.78 46.78 0 0 0 1216.22 701.67 L 1169.44 701.67" fill="#e9e9e9"/><rect x="1216.2222222222222" y="654.8888888888889" width="93.55555555555556" height="93.55555555555556" fill="#ffffff"/><rect x="1216.22" y="654.89" width="46.78" height="46.78" fill="#ededed"/><path d="M 1216.22 654.89 A 46.78 46.78 0 0 0 1263 701.67 L 1263 654.89" fill="#d7d7d7"/><rect x="1263" y="654.89" width="46.78" height="46.78" fill="#e9e9e9"/><path d="M 1263 701.67 A 46.78 46.78 0 0 0 1309.78 654.89 L 1263 654.89" fill="#dbdbdb"/><rect x="1216.22" y="701.67" width="46.78" height="46.78" fill="#eeeeee"/><path d="M 1216.22 748.4499999999999 A 46.78 46.78 0 0 1  1263 701.67 L 1263 748.4499999999999" fill="#f0f0f0"/><rect x="1263" y="701.67" width="46.78" height="46.78" fill="#efefef"/><path d="M 1263 701.67 A 46.78 46.78 0 0 1 1309.78 748.4499999999999 L 1263 748.4499999999999" fill="#fafafa"/><rect x="1309.78" y="654.89" width="93.56" height="93.56" fill="#ebebeb"/><polygon points="1309.78,654.89 1403.34,654.89 1309.78,748.45" fill="#fefefe"/><rect x="1403.3333333333333" y="654.8888888888889" width="93.55555555555556" height="93.55555555555556" fill="#ffffff"/><rect x="1403.33" y="654.89" width="46.78" height="46.78" fill="#e9e9e9"/><polygon points="1450.11,654.89 1450.11,701.67 1403.33,701.67" fill="#f3f3f3"/><rect x="1450.11" y="654.89" width="46.78" height="46.78" fill="#dfdfdf"/><polygon points="1450.11,654.89 1496.8899999999999,701.67 1450.11,701.67" fill="#dadada"/><rect x="1403.33" y="701.67" width="46.78" height="46.78" fill="#ebebeb"/><polygon points="1403.33,701.67 1450.11,701.67 1450.11,748.4499999999999" fill="#ebebeb"/><rect x="1450.11" y="701.67" width="46.78" height="46.78" fill="#f9f9f9"/><polygon points="1450.11,701.67 1496.8899999999999,701.67 1450.11,748.4499999999999" fill="#fdfdfd"/><rect x="0" y="748.44" width="93.56" height="93.56" fill="#eaeaea"/><path d="M 0 842 A 93.56 93.56 0 0 1  93.56 748.44 L 0 842 A 93.56 93.56 0 0 0 93.56 748.44" fill="#ebebeb"/><rect x="93.55555555555556" y="748.4444444444445" width="93.55555555555556" height="93.55555555555556" fill="#ffffff"/><rect x="93.56" y="748.44" width="46.78" height="46.78" fill="#e9e9e9"/><path d="M 93.56 748.44 A 46.78 46.78 0 0 0 140.34 795.22 L 140.34 748.44" fill="#e5e5e5"/><rect x="140.33" y="748.44" width="46.78" height="46.78" fill="#dbdbdb"/><path d="M 140.33 795.22 A 46.78 46.78 0 0 0 187.11 748.44 L 140.33 748.44" fill="#f2f2f2"/><rect x="93.56" y="795.22" width="46.78" height="46.78" fill="#f6f6f6"/><path d="M 93.56 842 A 46.78 46.78 0 0 1  140.34 795.22 L 140.34 842" fill="#f0f0f0"/><rect x="140.33" y="795.22" width="46.78" height="46.78" fill="#f5f5f5"/><path d="M 140.33 795.22 A 46.78 46.78 0 0 1 187.11 842 L 140.33 842" fill="#f5f5f5"/><rect x="187.11" y="748.44" width="93.56" height="93.56" fill="#e9e9e9"/><polygon points="187.11,748.44 280.67,842 187.11,842" fill="#ececec"/><rect x="280.67" y="748.44" width="93.56" height="93.56" fill="#f7f7f7"/><path d="M 280.67 748.44 A 93.56 93.56 0 0 1  374.23 842 L 280.67 748.44 A 93.56 93.56 0 0 0 374.23 842" fill="#fefefe"/><rect x="374.22" y="748.44" width="93.56" height="93.56" fill="#f6f6f6"/><path d="M 374.22 748.44 A 93.56 93.56 0 0 1 467.78000000000003 842 L 374.22 842" fill="#dadada"/><rect x="467.78" y="748.44" width="93.56" height="93.56" fill="#fdfdfd"/><rect x="467.78" y="748.44" width="93.56" height="93.56" fill="#ededed"/><rect x="561.33" y="748.44" width="93.56" height="93.56" fill="#fcfcfc"/><polygon points="654.8900000000001,748.44 654.8900000000001,842 561.33,842" fill="#e8e8e8"/><rect x="654.8888888888889" y="748.4444444444445" width="93.55555555555556" height="93.55555555555556" fill="#ffffff"/><rect x="654.89" y="748.44" width="46.78" height="46.78" fill="#e7e7e7"/><path d="M 654.89 795.22 A 46.78 46.78 0 0 1 701.67 748.44 L 701.67 760.1350000000001 A 35.085 35.085 0 0 0 666.585 795.22" fill="#f4f4f4"/><rect x="701.67" y="748.44" width="46.78" height="46.78" fill="#e9e9e9"/><path d="M 701.67 748.44 A 46.78 46.78 0 0 1 748.4499999999999 795.22 L 736.755 795.22 A 35.085 35.085 0 0 0 701.67 760.1350000000001" fill="#ebebeb"/><rect x="654.89" y="795.22" width="46.78" height="46.78" fill="#ebebeb"/><path d="M 654.89 795.22 A 46.78 46.78 0 0 0 701.67 842 L 701.67 830.3050000000001 A 35.085 35.085 0 0 1 666.585 795.22" fill="#f3f3f3"/><rect x="701.67" y="795.22" width="46.78" height="46.78" fill="#f3f3f3"/><path d="M 701.67 842 A 46.78 46.78 0 0 0 748.4499999999999 795.22 L 736.755 795.22 A 35.085 35.085 0 0 1 701.67 830.3050000000001" fill="#fbfbfb"/><rect x="748.4444444444445" y="748.4444444444445" width="93.55555555555556" height="93.55555555555556" fill="#ffffff"/><rect x="748.44" y="748.44" width="46.78" height="46.78" fill="#f9f9f9"/><circle cx="771.83" cy="771.83" r="23.39" fill="#f0f0f0"/><rect x="795.22" y="748.44" width="46.78" height="46.78" fill="#ededed"/><rect x="795.22" y="748.44" width="46.78" height="46.78" fill="#f8f8f8"/><rect x="748.44" y="795.22" width="46.78" height="46.78" fill="#fafafa"/><circle cx="771.83" cy="818.61" r="23.39" fill="#e0e0e0"/><rect x="795.22" y="795.22" width="46.78" height="46.78" fill="#f8f8f8"/><rect x="795.22" y="795.22" width="46.78" height="46.78" fill="#dddddd"/><rect x="842" y="748.4444444444445" width="93.55555555555556" height="93.55555555555556" fill="#ffffff"/><rect x="842" y="748.44" width="46.78" height="46.78" fill="#d5d5d5"/><path d="M 842 748.44 A 46.78 46.78 0 0 0 888.78 795.22 L 888.78 748.44" fill="#f4f4f4"/><rect x="888.78" y="748.44" width="46.78" height="46.78" fill="#fcfcfc"/><path d="M 888.78 795.22 A 46.78 46.78 0 0 0 935.56 748.44 L 888.78 748.44" fill="#ebebeb"/><rect x="842" y="795.22" width="46.78" height="46.78" fill="#ebebeb"/><path d="M 842 842 A 46.78 46.78 0 0 1  888.78 795.22 L 888.78 842" fill="#ececec"/><rect x="888.78" y="795.22" width="46.78" height="46.78" fill="#fcfcfc"/><path d="M 888.78 795.22 A 46.78 46.78 0 0 1 935.56 842 L 888.78 842" fill="#ececec"/><rect x="935.5555555555555" y="748.4444444444445" width="93.55555555555556" height="93.55555555555556" fill="#ffffff"/><rect x="935.56" y="748.44" width="46.78" height="46.78" fill="#f4f4f4"/><polygon points="982.3399999999999,748.44 982.3399999999999,795.22 935.56,795.22" fill="#eaeaea"/><rect x="982.33" y="748.44" width="46.78" height="46.78" fill="#f0f0f0"/><polygon points="982.33,748.44 1029.1100000000001,748.44 982.33,795.22" fill="#f5f5f5"/><rect x="935.56" y="795.22" width="46.78" height="46.78" fill="#fafafa"/><polygon points="935.56,795.22 982.3399999999999,795.22 982.3399999999999,842" fill="#f5f5f5"/><rect x="982.33" y="795.22" width="46.78" height="46.78" fill="#fdfdfd"/><polygon points="982.33,795.22 1029.1100000000001,842 982.33,842" fill="#f5f5f5"/><rect x="1029.111111111111" y="748.4444444444445" width="93.55555555555556" height="93.55555555555556" fill="#ffffff"/><rect x="1029.11" y="748.44" width="46.78" height="46.78" fill="#f6f6f6"/><polygon points="1075.8899999999999,748.44 1075.8899999999999,795.22 1029.11,795.22" fill="#e7e7e7"/><rect x="1075.89" y="748.44" width="46.78" height="46.78" fill="#ededed"/><polygon points="1075.89,748.44 1122.67,795.22 1075.89,795.22" fill="#e9e9e9"/><rect x="1029.11" y="795.22" width="46.78" height="46.78" fill="#f6f6f6"/><polygon points="1029.11,795.22 1075.8899999999999,795.22 1029.11,842" fill="#d6d6d6"/><rect x="1075.89" y="795.22" width="46.78" height="46.78" fill="#eaeaea"/><polygon points="1075.89,795.22 1122.67,795.22 1122.67,842" fill="#e9e9e9"/><rect x="1122.67" y="748.44" width="93.56" height="93.56" fill="#f6f6f6"/><path d="M 1122.67 842 A 93.56 93.56 0 0 1  1216.23 748.44 L 1216.23 842" fill="#fefefe"/><rect x="1216.2222222222222" y="748.4444444444445" width="93.55555555555556" height="93.55555555555556" fill="#ffffff"/><rect x="1216.22" y="748.44" width="46.78" height="46.78" fill="#d8d8d8"/><polygon points="1263,748.44 1263,795.22 1216.22,795.22" fill="#fcfcfc"/><rect x="1263" y="748.44" width="46.78" height="46.78" fill="#f3f3f3"/><polygon points="1263,748.44 1309.78,748.44 1263,795.22" fill="#f4f4f4"/><rect x="1216.22" y="795.22" width="46.78" height="46.78" fill="#e0e0e0"/><polygon points="1216.22,795.22 1263,795.22 1263,842" fill="#e1e1e1"/><rect x="1263" y="795.22" width="46.78" height="46.78" fill="#f0f0f0"/><polygon points="1263,795.22 1309.78,842 1263,842" fill="#fbfbfb"/><rect x="1309.78" y="748.44" width="93.56" height="93.56" fill="#f2f2f2"/><path d="M 1309.78 748.44 A 93.56 93.56 0 0 1 1403.34 842 L 1309.78 842" fill="#fbfbfb"/><rect x="1403.33" y="748.44" width="93.56" height="93.56" fill="#fcfcfc"/><path d="M 1403.33 842 A 93.56 93.56 0 0 1  1496.8899999999999 748.44 L 1403.33 842 A 93.56 93.56 0 0 0 1496.8899999999999 748.44" fill="#f7f7f7"/></g></svg>